<svg width="20" height="20" viewBox="0 0 20 20" fill="none" xmlns="http://www.w3.org/2000/svg">
<path d="M3.75 6.875L8.85307 10.4472C9.26631 10.7364 9.47292 10.881 9.69766 10.9371C9.89618 10.9866 10.1038 10.9866 10.3023 10.9371C10.5271 10.881 10.7337 10.7364 11.1469 10.4472L16.25 6.875M6.75 15H13.25C14.3001 15 14.8251 15 15.2262 14.7956C15.579 14.6159 15.8659 14.329 16.0456 13.9762C16.25 13.5751 16.25 13.0501 16.25 12V8C16.25 6.9499 16.25 6.42485 16.0456 6.02377C15.8659 5.67096 15.579 5.38413 15.2262 5.20436C14.8251 5 14.3001 5 13.25 5H6.75C5.6999 5 5.17485 5 4.77377 5.20436C4.42096 5.38413 4.13413 5.67096 3.95436 6.02377C3.75 6.42485 3.75 6.9499 3.75 8V12C3.75 13.0501 3.75 13.5751 3.95436 13.9762C4.13413 14.329 4.42096 14.6159 4.77377 14.7956C5.17485 15 5.6999 15 6.75 15Z" stroke="#1D2939" stroke-width="1.25" stroke-linecap="round" stroke-linejoin="round"/>
</svg>
