<svg width="20" height="20" viewBox="0 0 20 20" fill="none" xmlns="http://www.w3.org/2000/svg">
<path d="M14.375 9V6.375C14.375 3.95875 12.4162 2 10 2C7.58375 2 5.625 3.95875 5.625 6.375V9M7.2 17.75H12.8C14.2701 17.75 15.0052 17.75 15.5667 17.4639C16.0607 17.2122 16.4622 16.8106 16.7139 16.3167C17 15.7552 17 15.0201 17 13.55V13.2C17 11.7299 17 10.9948 16.7139 10.4333C16.4622 9.93935 16.0607 9.53778 15.5667 9.28611C15.0052 9 14.2701 9 12.8 9H7.2C5.72986 9 4.99479 9 4.43327 9.28611C3.93935 9.53778 3.53778 9.93935 3.28611 10.4333C3 10.9948 3 11.7299 3 13.2V13.55C3 15.0201 3 15.7552 3.28611 16.3167C3.53778 16.8106 3.93935 17.2122 4.43327 17.4639C4.99479 17.75 5.72986 17.75 7.2 17.75Z" stroke="#1D2939" stroke-width="1.5" stroke-linecap="round" stroke-linejoin="round"/>
</svg>
